<?xml version="1.0" encoding="utf-8"?>
<svg xmlns="http://www.w3.org/2000/svg" xmlns:dc="http://purl.org/dc/elements/1.1/" xmlns:cc="http://creativecommons.org/ns#" xmlns:rdf="http://www.w3.org/1999/02/22-rdf-syntax-ns#" xmlns:xlink="http://www.w3.org/1999/xlink" xmlns:sodipodi="http://sodipodi.sourceforge.net/DTD/sodipodi-0.dtd" xmlns:inkscape="http://www.inkscape.org/namespaces/inkscape" width="707mm" height="1000mm" viewBox="0 0 707 1000" version="1.1" id="svg8" inkscape:version="0.92.1 r15371" sodipodi:docname="out.svg">
  <defs id="defs2">
    <inkscape:path-effect effect="fill_between_many" id="path-effect3688" is_visible="true" linkedpaths="" />
    <style type="text/css">@font-face {
                      font-family: Roboto;
                      font-style: normal;
                      src: url('C:\Users\Halbich\Documents\GitHub\TauCetiF2-Text\Poster\fonts\Roboto-Regular.ttf');
                  }

                  @font-face {
                      font-family: Roboto;
                      font-style: bold;
                      src: url('C:\Users\Halbich\Documents\GitHub\TauCetiF2-Text\Poster\fonts\Roboto-Bold.ttf');
                  }
</style>
  </defs>
  <sodipodi:namedview id="base" pagecolor="#ffffff" bordercolor="#666666" borderopacity="1.0" inkscape:pageopacity="0.0" inkscape:pageshadow="2" inkscape:zoom="0.175" inkscape:cx="243.08773" inkscape:cy="1835.642" inkscape:document-units="mm" inkscape:current-layer="layer2" showgrid="true" inkscape:window-width="1920" inkscape:window-height="1017" inkscape:window-x="-8" inkscape:window-y="-8" inkscape:window-maximized="1" height="999mm">
    <inkscape:grid type="xygrid" id="grid20" />
  </sodipodi:namedview>
  <metadata id="metadata">
    <rdf:RDF>
      <cc:Work rdf:about="">
        <dc:format>image/svg+xml</dc:format>
        <dc:type rdf:resource="http://purl.org/dc/dcmitype/StillImage" />
        <dc:title></dc:title>
      </cc:Work>
    </rdf:RDF>
  </metadata>
  <g inkscape:groupmode="layer" id="layer1" inkscape:label="Background" />
  <g inkscape:groupmode="layer" id="layer2" inkscape:label="BorderBackground">
    <path style="fill:#000000;fill-opacity:0.8;stroke:#000000;stroke-width:0.01px;stroke-opacity:1" d="M 35,44 44,35 663,35 672,44 672,116 663,125 44,125 35,116 Z" id="path25" inkscape:connector-curvature="0" />
    <path style="fill:#000000;fill-opacity:0.8;stroke:#000000;stroke-width:0.01px;stroke-opacity:1" d="M 35,154 44,145 216,145 225,154 225,226 216,235 44,235 35,226 Z" id="path42" inkscape:connector-curvature="0" />
    <path style="fill:#000000;fill-opacity:0.8;stroke:#000000;stroke-width:0.01px;stroke-opacity:1" d="M 35,264 44,255 216,255 225,264 225,336 216,345 44,345 35,336 Z" id="path59" inkscape:connector-curvature="0" />
    <path style="fill:#000000;fill-opacity:0.8;stroke:#000000;stroke-width:0.01px;stroke-opacity:1" d="M 35,374 44,365 216,365 225,374 225,956 216,965 44,965 35,956 Z" id="path76" inkscape:connector-curvature="0" />
    <path style="fill:#000000;fill-opacity:0.8;stroke:#000000;stroke-width:0.01px;stroke-opacity:1" d="M 245,154 254,145 663,145 672,154 672,326 663,335 254,335 245,326 Z" id="path93" inkscape:connector-curvature="0" />
    <path style="fill:#000000;fill-opacity:0.8;stroke:#000000;stroke-width:0.01px;stroke-opacity:1" d="M 245,364 254,355 663,355 672,364 672,536 663,545 254,545 245,536 Z" id="path110" inkscape:connector-curvature="0" />
    <path style="fill:#000000;fill-opacity:0.8;stroke:#000000;stroke-width:0.01px;stroke-opacity:1" d="M 245,574 254,565 663,565 672,574 672,956 663,965 254,965 245,956 Z" id="path127" inkscape:connector-curvature="0" />
  </g>
  <g inkscape:groupmode="layer" id="layer3" inkscape:label="Border">
    <path style="fill:#771BC5;fill-opacity:1;stroke:#771BC5;stroke-width:0.01px;stroke-opacity:1" d="M 30,40 40,30 44,35 35,44 Z" id="path9" inkscape:connector-curvature="0" />
    <path style="fill:#301D5E;fill-opacity:1;stroke:#301D5E;stroke-width:0.01px;stroke-opacity:1" d="M 35,44 44,35 48,40 40,48 Z" id="path10" inkscape:connector-curvature="0" />
    <path style="fill:#771BC5;fill-opacity:1;stroke:#771BC5;stroke-width:0.01px;stroke-opacity:1" d="M 40,30 667,30 663,35 44,35 Z" id="path11" inkscape:connector-curvature="0" />
    <path style="fill:#431584;fill-opacity:1;stroke:#431584;stroke-width:0.01px;stroke-opacity:1" d="M 44,35 663,35 659,40 48,40 Z" id="path12" inkscape:connector-curvature="0" />
    <path style="fill:#771BC5;fill-opacity:1;stroke:#771BC5;stroke-width:0.01px;stroke-opacity:1" d="M 667,30 677,40 672,44 663,35 Z" id="path13" inkscape:connector-curvature="0" />
    <path style="fill:#5A0CA5;fill-opacity:1;stroke:#5A0CA5;stroke-width:0.01px;stroke-opacity:1" d="M 663,35 672,44 667,48 659,40 Z" id="path14" inkscape:connector-curvature="0" />
    <path style="fill:#771BC5;fill-opacity:1;stroke:#771BC5;stroke-width:0.01px;stroke-opacity:1" d="M 677,40 677,120 672,116 672,44 Z" id="path15" inkscape:connector-curvature="0" />
    <path style="fill:#8F45DD;fill-opacity:1;stroke:#8F45DD;stroke-width:0.01px;stroke-opacity:1" d="M 672,44 672,116 667,112 667,48 Z" id="path16" inkscape:connector-curvature="0" />
    <path style="fill:#771BC5;fill-opacity:1;stroke:#771BC5;stroke-width:0.01px;stroke-opacity:1" d="M 677,120 667,130 663,125 672,116 Z" id="path17" inkscape:connector-curvature="0" />
    <path style="fill:#A34DED;fill-opacity:1;stroke:#A34DED;stroke-width:0.01px;stroke-opacity:1" d="M 672,116 663,125 659,120 667,112 Z" id="path18" inkscape:connector-curvature="0" />
    <path style="fill:#771BC5;fill-opacity:1;stroke:#771BC5;stroke-width:0.01px;stroke-opacity:1" d="M 667,130 40,130 44,125 663,125 Z" id="path19" inkscape:connector-curvature="0" />
    <path style="fill:#8F45DD;fill-opacity:1;stroke:#8F45DD;stroke-width:0.01px;stroke-opacity:1" d="M 663,125 44,125 48,120 659,120 Z" id="path20" inkscape:connector-curvature="0" />
    <path style="fill:#771BC5;fill-opacity:1;stroke:#771BC5;stroke-width:0.01px;stroke-opacity:1" d="M 40,130 30,120 35,116 44,125 Z" id="path21" inkscape:connector-curvature="0" />
    <path style="fill:#5A0DA5;fill-opacity:1;stroke:#5A0DA5;stroke-width:0.01px;stroke-opacity:1" d="M 44,125 35,116 40,112 48,120 Z" id="path22" inkscape:connector-curvature="0" />
    <path style="fill:#771BC5;fill-opacity:1;stroke:#771BC5;stroke-width:0.01px;stroke-opacity:1" d="M 30,120 30,40 35,44 35,116 Z" id="path23" inkscape:connector-curvature="0" />
    <path style="fill:#431584;fill-opacity:1;stroke:#431584;stroke-width:0.01px;stroke-opacity:1" d="M 35,116 35,44 40,48 40,112 Z" id="path24" inkscape:connector-curvature="0" />
    <path style="fill:#771BC5;fill-opacity:1;stroke:#771BC5;stroke-width:0.01px;stroke-opacity:1" d="M 30,150 40,140 44,145 35,154 Z" id="path26" inkscape:connector-curvature="0" />
    <path style="fill:#301D5E;fill-opacity:1;stroke:#301D5E;stroke-width:0.01px;stroke-opacity:1" d="M 35,154 44,145 48,150 40,158 Z" id="path27" inkscape:connector-curvature="0" />
    <path style="fill:#771BC5;fill-opacity:1;stroke:#771BC5;stroke-width:0.01px;stroke-opacity:1" d="M 40,140 220,140 216,145 44,145 Z" id="path28" inkscape:connector-curvature="0" />
    <path style="fill:#431584;fill-opacity:1;stroke:#431584;stroke-width:0.01px;stroke-opacity:1" d="M 44,145 216,145 212,150 48,150 Z" id="path29" inkscape:connector-curvature="0" />
    <path style="fill:#771BC5;fill-opacity:1;stroke:#771BC5;stroke-width:0.01px;stroke-opacity:1" d="M 220,140 230,150 225,154 216,145 Z" id="path30" inkscape:connector-curvature="0" />
    <path style="fill:#5A0CA5;fill-opacity:1;stroke:#5A0CA5;stroke-width:0.01px;stroke-opacity:1" d="M 216,145 225,154 220,158 212,150 Z" id="path31" inkscape:connector-curvature="0" />
    <path style="fill:#771BC5;fill-opacity:1;stroke:#771BC5;stroke-width:0.01px;stroke-opacity:1" d="M 230,150 230,230 225,226 225,154 Z" id="path32" inkscape:connector-curvature="0" />
    <path style="fill:#8F45DD;fill-opacity:1;stroke:#8F45DD;stroke-width:0.01px;stroke-opacity:1" d="M 225,154 225,226 220,222 220,158 Z" id="path33" inkscape:connector-curvature="0" />
    <path style="fill:#771BC5;fill-opacity:1;stroke:#771BC5;stroke-width:0.01px;stroke-opacity:1" d="M 230,230 220,240 216,235 225,226 Z" id="path34" inkscape:connector-curvature="0" />
    <path style="fill:#A34DED;fill-opacity:1;stroke:#A34DED;stroke-width:0.01px;stroke-opacity:1" d="M 225,226 216,235 212,230 220,222 Z" id="path35" inkscape:connector-curvature="0" />
    <path style="fill:#771BC5;fill-opacity:1;stroke:#771BC5;stroke-width:0.01px;stroke-opacity:1" d="M 220,240 40,240 44,235 216,235 Z" id="path36" inkscape:connector-curvature="0" />
    <path style="fill:#8F45DD;fill-opacity:1;stroke:#8F45DD;stroke-width:0.01px;stroke-opacity:1" d="M 216,235 44,235 48,230 212,230 Z" id="path37" inkscape:connector-curvature="0" />
    <path style="fill:#771BC5;fill-opacity:1;stroke:#771BC5;stroke-width:0.01px;stroke-opacity:1" d="M 40,240 30,230 35,226 44,235 Z" id="path38" inkscape:connector-curvature="0" />
    <path style="fill:#5A0DA5;fill-opacity:1;stroke:#5A0DA5;stroke-width:0.01px;stroke-opacity:1" d="M 44,235 35,226 40,222 48,230 Z" id="path39" inkscape:connector-curvature="0" />
    <path style="fill:#771BC5;fill-opacity:1;stroke:#771BC5;stroke-width:0.01px;stroke-opacity:1" d="M 30,230 30,150 35,154 35,226 Z" id="path40" inkscape:connector-curvature="0" />
    <path style="fill:#431584;fill-opacity:1;stroke:#431584;stroke-width:0.01px;stroke-opacity:1" d="M 35,226 35,154 40,158 40,222 Z" id="path41" inkscape:connector-curvature="0" />
    <path style="fill:#771BC5;fill-opacity:1;stroke:#771BC5;stroke-width:0.01px;stroke-opacity:1" d="M 30,260 40,250 44,255 35,264 Z" id="path43" inkscape:connector-curvature="0" />
    <path style="fill:#301D5E;fill-opacity:1;stroke:#301D5E;stroke-width:0.01px;stroke-opacity:1" d="M 35,264 44,255 48,260 40,268 Z" id="path44" inkscape:connector-curvature="0" />
    <path style="fill:#771BC5;fill-opacity:1;stroke:#771BC5;stroke-width:0.01px;stroke-opacity:1" d="M 40,250 220,250 216,255 44,255 Z" id="path45" inkscape:connector-curvature="0" />
    <path style="fill:#431584;fill-opacity:1;stroke:#431584;stroke-width:0.01px;stroke-opacity:1" d="M 44,255 216,255 212,260 48,260 Z" id="path46" inkscape:connector-curvature="0" />
    <path style="fill:#771BC5;fill-opacity:1;stroke:#771BC5;stroke-width:0.01px;stroke-opacity:1" d="M 220,250 230,260 225,264 216,255 Z" id="path47" inkscape:connector-curvature="0" />
    <path style="fill:#5A0CA5;fill-opacity:1;stroke:#5A0CA5;stroke-width:0.01px;stroke-opacity:1" d="M 216,255 225,264 220,268 212,260 Z" id="path48" inkscape:connector-curvature="0" />
    <path style="fill:#771BC5;fill-opacity:1;stroke:#771BC5;stroke-width:0.01px;stroke-opacity:1" d="M 230,260 230,340 225,336 225,264 Z" id="path49" inkscape:connector-curvature="0" />
    <path style="fill:#8F45DD;fill-opacity:1;stroke:#8F45DD;stroke-width:0.01px;stroke-opacity:1" d="M 225,264 225,336 220,332 220,268 Z" id="path50" inkscape:connector-curvature="0" />
    <path style="fill:#771BC5;fill-opacity:1;stroke:#771BC5;stroke-width:0.01px;stroke-opacity:1" d="M 230,340 220,350 216,345 225,336 Z" id="path51" inkscape:connector-curvature="0" />
    <path style="fill:#A34DED;fill-opacity:1;stroke:#A34DED;stroke-width:0.01px;stroke-opacity:1" d="M 225,336 216,345 212,340 220,332 Z" id="path52" inkscape:connector-curvature="0" />
    <path style="fill:#771BC5;fill-opacity:1;stroke:#771BC5;stroke-width:0.01px;stroke-opacity:1" d="M 220,350 40,350 44,345 216,345 Z" id="path53" inkscape:connector-curvature="0" />
    <path style="fill:#8F45DD;fill-opacity:1;stroke:#8F45DD;stroke-width:0.01px;stroke-opacity:1" d="M 216,345 44,345 48,340 212,340 Z" id="path54" inkscape:connector-curvature="0" />
    <path style="fill:#771BC5;fill-opacity:1;stroke:#771BC5;stroke-width:0.01px;stroke-opacity:1" d="M 40,350 30,340 35,336 44,345 Z" id="path55" inkscape:connector-curvature="0" />
    <path style="fill:#5A0DA5;fill-opacity:1;stroke:#5A0DA5;stroke-width:0.01px;stroke-opacity:1" d="M 44,345 35,336 40,332 48,340 Z" id="path56" inkscape:connector-curvature="0" />
    <path style="fill:#771BC5;fill-opacity:1;stroke:#771BC5;stroke-width:0.01px;stroke-opacity:1" d="M 30,340 30,260 35,264 35,336 Z" id="path57" inkscape:connector-curvature="0" />
    <path style="fill:#431584;fill-opacity:1;stroke:#431584;stroke-width:0.01px;stroke-opacity:1" d="M 35,336 35,264 40,268 40,332 Z" id="path58" inkscape:connector-curvature="0" />
    <path style="fill:#771BC5;fill-opacity:1;stroke:#771BC5;stroke-width:0.01px;stroke-opacity:1" d="M 30,370 40,360 44,365 35,374 Z" id="path60" inkscape:connector-curvature="0" />
    <path style="fill:#301D5E;fill-opacity:1;stroke:#301D5E;stroke-width:0.01px;stroke-opacity:1" d="M 35,374 44,365 48,370 40,378 Z" id="path61" inkscape:connector-curvature="0" />
    <path style="fill:#771BC5;fill-opacity:1;stroke:#771BC5;stroke-width:0.01px;stroke-opacity:1" d="M 40,360 220,360 216,365 44,365 Z" id="path62" inkscape:connector-curvature="0" />
    <path style="fill:#431584;fill-opacity:1;stroke:#431584;stroke-width:0.01px;stroke-opacity:1" d="M 44,365 216,365 212,370 48,370 Z" id="path63" inkscape:connector-curvature="0" />
    <path style="fill:#771BC5;fill-opacity:1;stroke:#771BC5;stroke-width:0.01px;stroke-opacity:1" d="M 220,360 230,370 225,374 216,365 Z" id="path64" inkscape:connector-curvature="0" />
    <path style="fill:#5A0CA5;fill-opacity:1;stroke:#5A0CA5;stroke-width:0.01px;stroke-opacity:1" d="M 216,365 225,374 220,378 212,370 Z" id="path65" inkscape:connector-curvature="0" />
    <path style="fill:#771BC5;fill-opacity:1;stroke:#771BC5;stroke-width:0.01px;stroke-opacity:1" d="M 230,370 230,960 225,956 225,374 Z" id="path66" inkscape:connector-curvature="0" />
    <path style="fill:#8F45DD;fill-opacity:1;stroke:#8F45DD;stroke-width:0.01px;stroke-opacity:1" d="M 225,374 225,956 220,952 220,378 Z" id="path67" inkscape:connector-curvature="0" />
    <path style="fill:#771BC5;fill-opacity:1;stroke:#771BC5;stroke-width:0.01px;stroke-opacity:1" d="M 230,960 220,970 216,965 225,956 Z" id="path68" inkscape:connector-curvature="0" />
    <path style="fill:#A34DED;fill-opacity:1;stroke:#A34DED;stroke-width:0.01px;stroke-opacity:1" d="M 225,956 216,965 212,960 220,952 Z" id="path69" inkscape:connector-curvature="0" />
    <path style="fill:#771BC5;fill-opacity:1;stroke:#771BC5;stroke-width:0.01px;stroke-opacity:1" d="M 220,970 40,970 44,965 216,965 Z" id="path70" inkscape:connector-curvature="0" />
    <path style="fill:#8F45DD;fill-opacity:1;stroke:#8F45DD;stroke-width:0.01px;stroke-opacity:1" d="M 216,965 44,965 48,960 212,960 Z" id="path71" inkscape:connector-curvature="0" />
    <path style="fill:#771BC5;fill-opacity:1;stroke:#771BC5;stroke-width:0.01px;stroke-opacity:1" d="M 40,970 30,960 35,956 44,965 Z" id="path72" inkscape:connector-curvature="0" />
    <path style="fill:#5A0DA5;fill-opacity:1;stroke:#5A0DA5;stroke-width:0.01px;stroke-opacity:1" d="M 44,965 35,956 40,952 48,960 Z" id="path73" inkscape:connector-curvature="0" />
    <path style="fill:#771BC5;fill-opacity:1;stroke:#771BC5;stroke-width:0.01px;stroke-opacity:1" d="M 30,960 30,370 35,374 35,956 Z" id="path74" inkscape:connector-curvature="0" />
    <path style="fill:#431584;fill-opacity:1;stroke:#431584;stroke-width:0.01px;stroke-opacity:1" d="M 35,956 35,374 40,378 40,952 Z" id="path75" inkscape:connector-curvature="0" />
    <path style="fill:#771BC5;fill-opacity:1;stroke:#771BC5;stroke-width:0.01px;stroke-opacity:1" d="M 240,150 250,140 254,145 245,154 Z" id="path77" inkscape:connector-curvature="0" />
    <path style="fill:#301D5E;fill-opacity:1;stroke:#301D5E;stroke-width:0.01px;stroke-opacity:1" d="M 245,154 254,145 258,150 250,158 Z" id="path78" inkscape:connector-curvature="0" />
    <path style="fill:#771BC5;fill-opacity:1;stroke:#771BC5;stroke-width:0.01px;stroke-opacity:1" d="M 250,140 667,140 663,145 254,145 Z" id="path79" inkscape:connector-curvature="0" />
    <path style="fill:#431584;fill-opacity:1;stroke:#431584;stroke-width:0.01px;stroke-opacity:1" d="M 254,145 663,145 659,150 258,150 Z" id="path80" inkscape:connector-curvature="0" />
    <path style="fill:#771BC5;fill-opacity:1;stroke:#771BC5;stroke-width:0.01px;stroke-opacity:1" d="M 667,140 677,150 672,154 663,145 Z" id="path81" inkscape:connector-curvature="0" />
    <path style="fill:#5A0CA5;fill-opacity:1;stroke:#5A0CA5;stroke-width:0.01px;stroke-opacity:1" d="M 663,145 672,154 667,158 659,150 Z" id="path82" inkscape:connector-curvature="0" />
    <path style="fill:#771BC5;fill-opacity:1;stroke:#771BC5;stroke-width:0.01px;stroke-opacity:1" d="M 677,150 677,330 672,326 672,154 Z" id="path83" inkscape:connector-curvature="0" />
    <path style="fill:#8F45DD;fill-opacity:1;stroke:#8F45DD;stroke-width:0.01px;stroke-opacity:1" d="M 672,154 672,326 667,322 667,158 Z" id="path84" inkscape:connector-curvature="0" />
    <path style="fill:#771BC5;fill-opacity:1;stroke:#771BC5;stroke-width:0.01px;stroke-opacity:1" d="M 677,330 667,340 663,335 672,326 Z" id="path85" inkscape:connector-curvature="0" />
    <path style="fill:#A34DED;fill-opacity:1;stroke:#A34DED;stroke-width:0.01px;stroke-opacity:1" d="M 672,326 663,335 659,330 667,322 Z" id="path86" inkscape:connector-curvature="0" />
    <path style="fill:#771BC5;fill-opacity:1;stroke:#771BC5;stroke-width:0.01px;stroke-opacity:1" d="M 667,340 250,340 254,335 663,335 Z" id="path87" inkscape:connector-curvature="0" />
    <path style="fill:#8F45DD;fill-opacity:1;stroke:#8F45DD;stroke-width:0.01px;stroke-opacity:1" d="M 663,335 254,335 258,330 659,330 Z" id="path88" inkscape:connector-curvature="0" />
    <path style="fill:#771BC5;fill-opacity:1;stroke:#771BC5;stroke-width:0.01px;stroke-opacity:1" d="M 250,340 240,330 245,326 254,335 Z" id="path89" inkscape:connector-curvature="0" />
    <path style="fill:#5A0DA5;fill-opacity:1;stroke:#5A0DA5;stroke-width:0.01px;stroke-opacity:1" d="M 254,335 245,326 250,322 258,330 Z" id="path90" inkscape:connector-curvature="0" />
    <path style="fill:#771BC5;fill-opacity:1;stroke:#771BC5;stroke-width:0.01px;stroke-opacity:1" d="M 240,330 240,150 245,154 245,326 Z" id="path91" inkscape:connector-curvature="0" />
    <path style="fill:#431584;fill-opacity:1;stroke:#431584;stroke-width:0.01px;stroke-opacity:1" d="M 245,326 245,154 250,158 250,322 Z" id="path92" inkscape:connector-curvature="0" />
    <path style="fill:#771BC5;fill-opacity:1;stroke:#771BC5;stroke-width:0.01px;stroke-opacity:1" d="M 240,360 250,350 254,355 245,364 Z" id="path94" inkscape:connector-curvature="0" />
    <path style="fill:#301D5E;fill-opacity:1;stroke:#301D5E;stroke-width:0.01px;stroke-opacity:1" d="M 245,364 254,355 258,360 250,368 Z" id="path95" inkscape:connector-curvature="0" />
    <path style="fill:#771BC5;fill-opacity:1;stroke:#771BC5;stroke-width:0.01px;stroke-opacity:1" d="M 250,350 667,350 663,355 254,355 Z" id="path96" inkscape:connector-curvature="0" />
    <path style="fill:#431584;fill-opacity:1;stroke:#431584;stroke-width:0.01px;stroke-opacity:1" d="M 254,355 663,355 659,360 258,360 Z" id="path97" inkscape:connector-curvature="0" />
    <path style="fill:#771BC5;fill-opacity:1;stroke:#771BC5;stroke-width:0.01px;stroke-opacity:1" d="M 667,350 677,360 672,364 663,355 Z" id="path98" inkscape:connector-curvature="0" />
    <path style="fill:#5A0CA5;fill-opacity:1;stroke:#5A0CA5;stroke-width:0.01px;stroke-opacity:1" d="M 663,355 672,364 667,368 659,360 Z" id="path99" inkscape:connector-curvature="0" />
    <path style="fill:#771BC5;fill-opacity:1;stroke:#771BC5;stroke-width:0.01px;stroke-opacity:1" d="M 677,360 677,540 672,536 672,364 Z" id="path100" inkscape:connector-curvature="0" />
    <path style="fill:#8F45DD;fill-opacity:1;stroke:#8F45DD;stroke-width:0.01px;stroke-opacity:1" d="M 672,364 672,536 667,532 667,368 Z" id="path101" inkscape:connector-curvature="0" />
    <path style="fill:#771BC5;fill-opacity:1;stroke:#771BC5;stroke-width:0.01px;stroke-opacity:1" d="M 677,540 667,550 663,545 672,536 Z" id="path102" inkscape:connector-curvature="0" />
    <path style="fill:#A34DED;fill-opacity:1;stroke:#A34DED;stroke-width:0.01px;stroke-opacity:1" d="M 672,536 663,545 659,540 667,532 Z" id="path103" inkscape:connector-curvature="0" />
    <path style="fill:#771BC5;fill-opacity:1;stroke:#771BC5;stroke-width:0.01px;stroke-opacity:1" d="M 667,550 250,550 254,545 663,545 Z" id="path104" inkscape:connector-curvature="0" />
    <path style="fill:#8F45DD;fill-opacity:1;stroke:#8F45DD;stroke-width:0.01px;stroke-opacity:1" d="M 663,545 254,545 258,540 659,540 Z" id="path105" inkscape:connector-curvature="0" />
    <path style="fill:#771BC5;fill-opacity:1;stroke:#771BC5;stroke-width:0.01px;stroke-opacity:1" d="M 250,550 240,540 245,536 254,545 Z" id="path106" inkscape:connector-curvature="0" />
    <path style="fill:#5A0DA5;fill-opacity:1;stroke:#5A0DA5;stroke-width:0.01px;stroke-opacity:1" d="M 254,545 245,536 250,532 258,540 Z" id="path107" inkscape:connector-curvature="0" />
    <path style="fill:#771BC5;fill-opacity:1;stroke:#771BC5;stroke-width:0.01px;stroke-opacity:1" d="M 240,540 240,360 245,364 245,536 Z" id="path108" inkscape:connector-curvature="0" />
    <path style="fill:#431584;fill-opacity:1;stroke:#431584;stroke-width:0.01px;stroke-opacity:1" d="M 245,536 245,364 250,368 250,532 Z" id="path109" inkscape:connector-curvature="0" />
    <path style="fill:#771BC5;fill-opacity:1;stroke:#771BC5;stroke-width:0.01px;stroke-opacity:1" d="M 240,570 250,560 254,565 245,574 Z" id="path111" inkscape:connector-curvature="0" />
    <path style="fill:#301D5E;fill-opacity:1;stroke:#301D5E;stroke-width:0.01px;stroke-opacity:1" d="M 245,574 254,565 258,570 250,578 Z" id="path112" inkscape:connector-curvature="0" />
    <path style="fill:#771BC5;fill-opacity:1;stroke:#771BC5;stroke-width:0.01px;stroke-opacity:1" d="M 250,560 667,560 663,565 254,565 Z" id="path113" inkscape:connector-curvature="0" />
    <path style="fill:#431584;fill-opacity:1;stroke:#431584;stroke-width:0.01px;stroke-opacity:1" d="M 254,565 663,565 659,570 258,570 Z" id="path114" inkscape:connector-curvature="0" />
    <path style="fill:#771BC5;fill-opacity:1;stroke:#771BC5;stroke-width:0.01px;stroke-opacity:1" d="M 667,560 677,570 672,574 663,565 Z" id="path115" inkscape:connector-curvature="0" />
    <path style="fill:#5A0CA5;fill-opacity:1;stroke:#5A0CA5;stroke-width:0.01px;stroke-opacity:1" d="M 663,565 672,574 667,578 659,570 Z" id="path116" inkscape:connector-curvature="0" />
    <path style="fill:#771BC5;fill-opacity:1;stroke:#771BC5;stroke-width:0.01px;stroke-opacity:1" d="M 677,570 677,960 672,956 672,574 Z" id="path117" inkscape:connector-curvature="0" />
    <path style="fill:#8F45DD;fill-opacity:1;stroke:#8F45DD;stroke-width:0.01px;stroke-opacity:1" d="M 672,574 672,956 667,952 667,578 Z" id="path118" inkscape:connector-curvature="0" />
    <path style="fill:#771BC5;fill-opacity:1;stroke:#771BC5;stroke-width:0.01px;stroke-opacity:1" d="M 677,960 667,970 663,965 672,956 Z" id="path119" inkscape:connector-curvature="0" />
    <path style="fill:#A34DED;fill-opacity:1;stroke:#A34DED;stroke-width:0.01px;stroke-opacity:1" d="M 672,956 663,965 659,960 667,952 Z" id="path120" inkscape:connector-curvature="0" />
    <path style="fill:#771BC5;fill-opacity:1;stroke:#771BC5;stroke-width:0.01px;stroke-opacity:1" d="M 667,970 250,970 254,965 663,965 Z" id="path121" inkscape:connector-curvature="0" />
    <path style="fill:#8F45DD;fill-opacity:1;stroke:#8F45DD;stroke-width:0.01px;stroke-opacity:1" d="M 663,965 254,965 258,960 659,960 Z" id="path122" inkscape:connector-curvature="0" />
    <path style="fill:#771BC5;fill-opacity:1;stroke:#771BC5;stroke-width:0.01px;stroke-opacity:1" d="M 250,970 240,960 245,956 254,965 Z" id="path123" inkscape:connector-curvature="0" />
    <path style="fill:#5A0DA5;fill-opacity:1;stroke:#5A0DA5;stroke-width:0.01px;stroke-opacity:1" d="M 254,965 245,956 250,952 258,960 Z" id="path124" inkscape:connector-curvature="0" />
    <path style="fill:#771BC5;fill-opacity:1;stroke:#771BC5;stroke-width:0.01px;stroke-opacity:1" d="M 240,960 240,570 245,574 245,956 Z" id="path125" inkscape:connector-curvature="0" />
    <path style="fill:#431584;fill-opacity:1;stroke:#431584;stroke-width:0.01px;stroke-opacity:1" d="M 245,956 245,574 250,578 250,952 Z" id="path126" inkscape:connector-curvature="0" />
  </g>
  <g inkscape:groupmode="layer" id="layer4" inkscape:label="Text">
    <rect id="rect2" width="150" height="20" x="195" y="45" style="fill:none;fill-opacity:1;stroke:#FF0000;stroke-width:1px;stroke-opacity:1" />
    <flowRoot xml:space="preserve" style="font-style:normal;font-weight:normal;font-size:12px;line-height:125%;font-family:sans-serif;letter-spacing:0px;word-spacing:0px;fill:#FFFFFF;fill-opacity:1;stroke:none;stroke-width:1px;stroke-linecap:butt;stroke-linejoin:miter;stroke-opacity:1" id="flowRoot1">
      <flowRegion id="flowRegion1">
        <use x="0" y="0" id="use1" xlink:href="#rect2" />
      </flowRegion>
      <flowPara id="flowPara1">TauCetiF2</flowPara>
    </flowRoot>
    <rect id="rect3" width="150" height="50" x="195" y="65" style="fill:none;fill-opacity:1;stroke:#FF0000;stroke-width:1px;stroke-opacity:1" />
    <flowRoot xml:space="preserve" style="font-style:normal;font-weight:normal;font-size:12px;line-height:125%;font-family:sans-serif;letter-spacing:0px;word-spacing:0px;fill:#FFFFFF;fill-opacity:1;stroke:none;stroke-width:1px;stroke-linecap:butt;stroke-linejoin:miter;stroke-opacity:1" id="flowRoot2">
      <flowRegion id="flowRegion2">
        <use x="0" y="0" id="use2" xlink:href="#rect3" />
      </flowRegion>
    </flowRoot>
  </g>
  <g inkscape:groupmode="layer" id="layer5" inkscape:label="Other">
    <path style="fill:none;fill-opacity:1;stroke:#000000;stroke-width:0.2px;stroke-opacity:1" d="M 13,20 27,20 " id="path1" inkscape:connector-curvature="0" />
    <path style="fill:none;fill-opacity:1;stroke:#000000;stroke-width:0.2px;stroke-opacity:1" d="M 20,13 20,27 " id="path2" inkscape:connector-curvature="0" />
    <path style="fill:none;fill-opacity:1;stroke:#000000;stroke-width:0.2px;stroke-opacity:1" d="M 680,20 694,20 " id="path3" inkscape:connector-curvature="0" />
    <path style="fill:none;fill-opacity:1;stroke:#000000;stroke-width:0.2px;stroke-opacity:1" d="M 687,13 687,27 " id="path4" inkscape:connector-curvature="0" />
    <path style="fill:none;fill-opacity:1;stroke:#000000;stroke-width:0.2px;stroke-opacity:1" d="M 13,980 27,980 " id="path5" inkscape:connector-curvature="0" />
    <path style="fill:none;fill-opacity:1;stroke:#000000;stroke-width:0.2px;stroke-opacity:1" d="M 20,973 20,987 " id="path6" inkscape:connector-curvature="0" />
    <path style="fill:none;fill-opacity:1;stroke:#000000;stroke-width:0.2px;stroke-opacity:1" d="M 680,980 694,980 " id="path7" inkscape:connector-curvature="0" />
    <path style="fill:none;fill-opacity:1;stroke:#000000;stroke-width:0.2px;stroke-opacity:1" d="M 687,973 687,987 " id="path8" inkscape:connector-curvature="0" />
    <rect id="rect1" width="150" height="70" x="45" y="45" style="fill:none;fill-opacity:1;stroke:#FF0000;stroke-width:1px;stroke-opacity:1" />
    <rect id="rect4" width="150" height="70" x="345" y="45" style="fill:none;fill-opacity:1;stroke:#FF0000;stroke-width:1px;stroke-opacity:1" />
    <rect id="rect5" width="167" height="70" x="495" y="45" style="fill:none;fill-opacity:1;stroke:#FF0000;stroke-width:1px;stroke-opacity:1" />
  </g>
</svg>