<?xml version="1.0" encoding="utf-8"?>
<svg xmlns="http://www.w3.org/2000/svg" xmlns:dc="http://purl.org/dc/elements/1.1/" xmlns:cc="http://creativecommons.org/ns#" xmlns:rdf="http://www.w3.org/1999/02/22-rdf-syntax-ns#" xmlns:xlink="http://www.w3.org/1999/xlink" xmlns:sodipodi="http://sodipodi.sourceforge.net/DTD/sodipodi-0.dtd" xmlns:inkscape="http://www.inkscape.org/namespaces/inkscape" width="707mm" height="1000mm" viewBox="0 0 707 1000" version="1.1" id="svg8" inkscape:version="0.92.1 r15371" sodipodi:docname="out.svg">
  <defs id="defs2">
    <inkscape:path-effect effect="fill_between_many" id="path-effect3688" is_visible="true" linkedpaths="" />
  </defs>
  <sodipodi:namedview id="base" pagecolor="#ffffff" bordercolor="#666666" borderopacity="1.0" inkscape:pageopacity="0.0" inkscape:pageshadow="2" inkscape:zoom="0.175" inkscape:cx="243.08773" inkscape:cy="1835.642" inkscape:document-units="mm" inkscape:current-layer="layer2" showgrid="true" inkscape:window-width="1920" inkscape:window-height="1017" inkscape:window-x="-8" inkscape:window-y="-8" inkscape:window-maximized="1" height="999mm">
    <inkscape:grid type="xygrid" id="grid20" />
  </sodipodi:namedview>
  <metadata id="metadata">
    <rdf:RDF>
      <cc:Work rdf:about="">
        <dc:format>image/svg+xml</dc:format>
        <dc:type rdf:resource="http://purl.org/dc/dcmitype/StillImage" />
        <dc:title></dc:title>
      </cc:Work>
    </rdf:RDF>
  </metadata>
  <g inkscape:groupmode="layer" id="layer1" inkscape:label="Background" />
  <g inkscape:groupmode="layer" id="layer2" inkscape:label="BorderBackground" />
  <g inkscape:groupmode="layer" id="layer3" inkscape:label="Border">
    <path style="fill:none;stroke:#000000;stroke-width:1px;stroke-opacity:1" d="M 30,40 40,30 667,30 677,40 677,120 667,130 40,130 30,120 Z" id="layer9" inkscape:connector-curvature="0" />
    <path style="fill:none;stroke:#000000;stroke-width:1px;stroke-opacity:1" d="M 35,44 44,35 663,35 672,44 672,116 663,125 44,125 35,116 Z" id="layer10" inkscape:connector-curvature="0" />
    <path style="fill:none;stroke:#000000;stroke-width:1px;stroke-opacity:1" d="M 40,48 48,40 659,40 667,48 667,112 659,120 48,120 40,112 Z" id="layer11" inkscape:connector-curvature="0" />
    <path style="fill:none;stroke:#000000;stroke-width:1px;stroke-opacity:1" d="M 30,150 40,140 667,140 677,150 677,970 667,980 40,980 30,970 Z" id="layer12" inkscape:connector-curvature="0" />
    <path style="fill:none;stroke:#000000;stroke-width:1px;stroke-opacity:1" d="M 35,154 44,145 663,145 672,154 672,966 663,975 44,975 35,966 Z" id="layer13" inkscape:connector-curvature="0" />
    <path style="fill:none;stroke:#000000;stroke-width:1px;stroke-opacity:1" d="M 40,158 48,150 659,150 667,158 667,962 659,970 48,970 40,962 Z" id="layer14" inkscape:connector-curvature="0" />
  </g>
  <g inkscape:groupmode="layer" id="layer4" inkscape:label="Text" />
  <g inkscape:groupmode="layer" id="layer5" inkscape:label="Other">
    <path style="fill:none;stroke:#000000;stroke-width:0.2px;stroke-opacity:1" d="M 13,20 27,20 " id="layer1" inkscape:connector-curvature="0" />
    <path style="fill:none;stroke:#000000;stroke-width:0.2px;stroke-opacity:1" d="M 20,13 20,27 " id="layer2" inkscape:connector-curvature="0" />
    <path style="fill:none;stroke:#000000;stroke-width:0.2px;stroke-opacity:1" d="M 680,20 694,20 " id="layer3" inkscape:connector-curvature="0" />
    <path style="fill:none;stroke:#000000;stroke-width:0.2px;stroke-opacity:1" d="M 687,13 687,27 " id="layer4" inkscape:connector-curvature="0" />
    <path style="fill:none;stroke:#000000;stroke-width:0.2px;stroke-opacity:1" d="M 13,980 27,980 " id="layer5" inkscape:connector-curvature="0" />
    <path style="fill:none;stroke:#000000;stroke-width:0.2px;stroke-opacity:1" d="M 20,973 20,987 " id="layer6" inkscape:connector-curvature="0" />
    <path style="fill:none;stroke:#000000;stroke-width:0.2px;stroke-opacity:1" d="M 680,980 694,980 " id="layer7" inkscape:connector-curvature="0" />
    <path style="fill:none;stroke:#000000;stroke-width:0.2px;stroke-opacity:1" d="M 687,973 687,987 " id="layer8" inkscape:connector-curvature="0" />
  </g>
</svg>